<svg width="48" height="49" viewBox="0 0 48 49" fill="none" xmlns="http://www.w3.org/2000/svg">
<path d="M15.7499 31C10.7939 30.8477 10.7932 23.653 15.7499 23.5C20.7059 23.6522 20.7067 30.847 15.7499 31ZM46.4999 6.24998C46.5502 7.97273 44.4884 9.10448 43.0672 8.15648L40.9687 9.83573C40.6439 10.0952 40.1729 10.042 39.9142 9.71873L37.4377 6.62348L21.0187 23.0425C21.2887 23.38 21.5272 23.7437 21.7289 24.13L39.4154 21.409L37.6709 17.4842C34.5944 17.6485 34.4137 13.1012 37.4999 13.0015C39.5009 12.9557 40.5157 15.562 39.0449 16.8805L41.1854 21.697C41.2799 21.9107 41.2702 22.156 41.1584 22.3607C41.0467 22.5655 40.8449 22.7065 40.6139 22.7425L22.2772 25.5632C22.4234 26.1415 22.5202 26.7595 22.4932 27.3805L39.3172 30.616C40.4249 28.6622 43.5164 29.4752 43.4992 31.7515C43.4512 34.516 39.4822 34.801 39.0329 32.089L22.2944 28.87C22.1249 29.5562 21.8504 30.1997 21.4882 30.7862L31.0837 35.581C31.6537 35.8187 31.4722 36.6625 31.4984 37.1395C33.8452 37.9765 33.2692 41.4805 30.7484 41.5015C28.2284 41.4805 27.6517 37.9765 29.9984 37.1395V36.715L20.5462 31.9922C19.1767 33.403 17.0699 34.21 14.9984 33.9572V37.7515H20.3864C21.2234 35.4047 24.7274 35.9807 24.7484 38.5015C24.7274 41.0215 21.2234 41.5982 20.3864 39.2515H14.2484C13.8337 39.2515 13.4984 38.9155 13.4984 38.5015V33.6077C13.0177 33.4367 12.5617 33.2147 12.1372 32.9447L10.0034 36.3595C11.1884 37.738 10.0852 40.0622 8.24845 40.0022C4.95145 39.8515 5.48545 34.9847 8.7352 35.5585L10.9582 32.002C10.6919 31.7335 10.4512 31.441 10.2329 31.1312L5.99395 32.5442C5.8702 35.4827 1.5697 35.443 1.49845 32.5022C1.47445 30.382 4.25695 29.4467 5.51395 31.123L9.49945 29.7947C9.2692 29.2307 9.11245 28.63 9.0427 28.0022H4.49995C4.0852 28.0022 3.74995 27.6662 3.74995 27.2522V24.8642C1.4032 24.0272 1.9792 20.5232 4.49995 20.5022C7.01995 20.5232 7.5967 24.0272 5.24995 24.8642V26.5022H9.0442C9.1972 25.1237 9.76869 23.8712 10.6267 22.8692L5.11645 15.1555C1.8127 15.9407 1.10395 10.93 4.49995 10.7522C6.27745 10.6967 7.3942 12.883 6.3412 14.29L11.7337 21.8395C12.4432 21.3115 13.2584 20.9207 14.1427 20.7032L11.2604 4.13048C11.1967 3.76523 11.4104 3.40823 11.7622 3.29048L15.6344 1.99973L15.4282 0.969233C12.7034 0.537982 12.9757 -3.44827 15.7492 -3.49852C18.0164 -3.51652 18.8369 -0.441518 16.8989 0.675982L17.2349 2.35448C17.3092 2.72573 17.0954 3.09323 16.7369 3.21323L12.8489 4.50923L15.6314 20.5075C15.6832 20.506 15.7342 20.4985 15.7859 20.503L16.5007 6.21398C16.5209 5.81498 16.8502 5.50148 17.2499 5.50148H21.2864L23.1322 1.80998C21.7567 0.458483 22.7984 -2.04277 24.7499 -1.99852C27.9022 -1.88602 27.6134 2.77298 24.4777 2.47373L22.4212 6.58673C22.2937 6.84098 22.0342 7.00148 21.7499 7.00148H17.9632L17.2792 20.683C17.4554 20.7242 17.6309 20.7685 17.8019 20.8225L23.0609 11.4737C21.7814 10.0952 22.8532 7.70873 24.7499 7.75148C27.9757 7.88423 27.5647 12.646 24.3667 12.2125L19.1737 21.4435C19.4482 21.6055 19.7107 21.784 19.9589 21.982L36.9697 4.96973C37.1204 4.81898 37.3304 4.74473 37.5419 4.75073C37.7542 4.76273 37.9529 4.86473 38.0864 5.03123L40.6177 8.19548L42.1334 6.98348C41.5957 5.56823 42.7372 3.97073 44.2507 3.99998C45.4934 3.99998 46.4999 5.00723 46.4999 6.24998ZM20.9999 27.25C20.7367 20.2967 10.7639 20.2945 10.4999 27.25C10.4999 30.145 12.8557 32.5 15.7499 32.5C18.6442 32.5 20.9999 30.145 20.9999 27.25Z" fill="white"/>
</svg>
