<svg width="48" height="48" viewBox="0 0 48 48" fill="none" xmlns="http://www.w3.org/2000/svg">
<path d="M45.3332 24C45.3291 22.9976 44.9904 22.0252 44.3708 21.2372C43.7513 20.4492 42.8863 19.8905 41.9132 19.65L39.8432 14.505C40.4928 14.1947 41.0586 13.7331 41.4928 13.159C41.9271 12.5848 42.2173 11.9148 42.3391 11.2053C42.4608 10.4957 42.4105 9.76733 42.1925 9.08124C41.9744 8.39515 41.5949 7.77139 41.0859 7.26233C40.5768 6.75328 39.953 6.37378 39.267 6.15572C38.5809 5.93765 37.8525 5.88738 37.1429 6.00912C36.4334 6.13086 35.7634 6.42105 35.1892 6.85535C34.6151 7.28964 34.1535 7.85535 33.8432 8.50497L28.6832 6.41997C28.429 5.46024 27.8646 4.61152 27.0778 4.006C26.291 3.40047 25.326 3.07214 24.3332 3.07214C23.3404 3.07214 22.3754 3.40047 21.5887 4.006C20.8019 4.61152 20.2374 5.46024 19.9832 6.41997L14.8382 8.48997C14.528 7.84034 14.0664 7.27464 13.4922 6.84035C12.918 6.40605 12.2481 6.11586 11.5385 5.99412C10.829 5.87238 10.1006 5.92265 9.41449 6.14072C8.7284 6.35878 8.10464 6.73828 7.59558 7.24733C7.08653 7.75639 6.70704 8.38015 6.48897 9.06624C6.27091 9.75233 6.22063 10.4807 6.34237 11.1903C6.46411 11.8998 6.75431 12.5698 7.1886 13.144C7.62289 13.7181 8.1886 14.1797 8.83822 14.49L6.75322 19.65C5.7935 19.9042 4.94477 20.4686 4.33925 21.2554C3.73373 22.0422 3.4054 23.0072 3.4054 24C3.4054 24.9928 3.73373 25.9577 4.33925 26.7445C4.94477 27.5313 5.7935 28.0958 6.75322 28.35L8.82322 33.495C8.1736 33.8052 7.60789 34.2668 7.1736 34.841C6.73931 35.4151 6.44911 36.0851 6.32737 36.7947C6.20563 37.5042 6.25591 38.2326 6.47397 38.9187C6.69204 39.6048 7.07153 40.2286 7.58058 40.7376C8.08964 41.2467 8.7134 41.6262 9.39949 41.8442C10.0856 42.0623 10.814 42.1126 11.5235 41.9908C12.2331 41.8691 12.903 41.5789 13.4772 41.1446C14.0514 40.7103 14.513 40.1446 14.8232 39.495L19.9682 41.565C20.2224 42.5247 20.7869 43.3734 21.5737 43.9789C22.3604 44.5845 23.3254 44.9128 24.3182 44.9128C25.311 44.9128 26.276 44.5845 27.0628 43.9789C27.8496 43.3734 28.414 42.5247 28.6682 41.565L33.8132 39.495C34.1235 40.1446 34.5851 40.7103 35.1592 41.1446C35.7334 41.5789 36.4034 41.8691 37.1129 41.9908C37.8225 42.1126 38.5509 42.0623 39.237 41.8442C39.923 41.6262 40.5468 41.2467 41.0559 40.7376C41.5649 40.2286 41.9444 39.6048 42.1625 38.9187C42.3805 38.2326 42.4308 37.5042 42.3091 36.7947C42.1873 36.0851 41.8971 35.4151 41.4628 34.841C41.0286 34.2668 40.4628 33.8052 39.8132 33.495L41.8832 28.35C42.8619 28.1151 43.7336 27.559 44.359 26.7704C44.9844 25.9819 45.3274 25.0064 45.3332 24ZM20.3282 38.49L15.1832 36.42C15.1169 36.1242 15.0162 35.8373 14.8832 35.565L20.2082 30.255C21.0054 30.7841 21.8964 31.1557 22.8332 31.35V36.27C21.7438 36.6604 20.8467 37.4554 20.3282 38.49ZM7.83322 22.5C8.1299 22.5 8.4199 22.5879 8.66658 22.7528C8.91325 22.9176 9.10551 23.1519 9.21904 23.4259C9.33257 23.7 9.36228 24.0016 9.3044 24.2926C9.24652 24.5836 9.10366 24.8509 8.89388 25.0606C8.6841 25.2704 8.41683 25.4133 8.12586 25.4711C7.83489 25.529 7.53329 25.4993 7.2592 25.3858C6.98511 25.2723 6.75084 25.08 6.58602 24.8333C6.4212 24.5867 6.33322 24.2966 6.33322 24C6.33322 23.6021 6.49126 23.2206 6.77256 22.9393C7.05387 22.658 7.4354 22.5 7.83322 22.5ZM28.3382 9.50997L33.4832 11.58C33.5495 11.8757 33.6502 12.1626 33.7832 12.435L28.4582 17.745C27.6611 17.2159 26.7701 16.8442 25.8332 16.65V11.73C26.9226 11.3396 27.8197 10.5445 28.3382 9.50997ZM42.3332 24C42.3332 24.2966 42.2452 24.5867 42.0804 24.8333C41.9156 25.08 41.6813 25.2723 41.4072 25.3858C41.1332 25.4993 40.8316 25.529 40.5406 25.4711C40.2496 25.4133 39.9823 25.2704 39.7726 25.0606C39.5628 24.8509 39.4199 24.5836 39.362 24.2926C39.3042 24.0016 39.3339 23.7 39.4474 23.4259C39.5609 23.1519 39.7532 22.9176 39.9999 22.7528C40.2465 22.5879 40.5365 22.5 40.8332 22.5C41.231 22.5 41.6126 22.658 41.8939 22.9393C42.1752 23.2206 42.3332 23.6021 42.3332 24ZM36.6032 22.5H31.6832C31.489 21.5631 31.1173 20.6721 30.5882 19.875L35.8982 14.55C36.1705 14.683 36.4575 14.7837 36.7532 14.85L38.8232 19.995C37.7887 20.5135 36.9936 21.4106 36.6032 22.5ZM24.3332 28.5C23.4432 28.5 22.5732 28.2361 21.8332 27.7416C21.0931 27.2471 20.5164 26.5443 20.1758 25.722C19.8352 24.8998 19.7461 23.995 19.9197 23.1221C20.0933 22.2492 20.5219 21.4473 21.1512 20.818C21.7806 20.1887 22.5824 19.7601 23.4553 19.5864C24.3282 19.4128 25.233 19.5019 26.0553 19.8425C26.8776 20.1831 27.5804 20.7599 28.0748 21.4999C28.5693 22.2399 28.8332 23.11 28.8332 24C28.8332 25.1934 28.3591 26.338 27.5152 27.182C26.6713 28.0259 25.5267 28.5 24.3332 28.5ZM22.8332 11.73V16.65C21.8964 16.8442 21.0054 17.2159 20.2082 17.745L14.8832 12.435C15.0162 12.1626 15.1169 11.8757 15.1832 11.58L20.3282 9.50997C20.8467 10.5445 21.7438 11.3396 22.8332 11.73ZM12.7682 14.55L18.0782 19.875C17.5491 20.6721 17.1774 21.5631 16.9832 22.5H12.0632C11.6728 21.4106 10.8778 20.5135 9.84322 19.995L11.9132 14.85C12.2089 14.7837 12.4959 14.683 12.7682 14.55ZM12.0632 25.5H16.9832C17.1774 26.4368 17.5491 27.3278 18.0782 28.125L12.7682 33.45C12.4959 33.317 12.2089 33.2163 11.9132 33.15L9.84322 28.005C10.8778 27.4865 11.6728 26.5894 12.0632 25.5ZM25.8332 36.27V31.35C26.7701 31.1557 27.6611 30.7841 28.4582 30.255L33.7832 35.565C33.6502 35.8373 33.5495 36.1242 33.4832 36.42L28.3382 38.49C27.8197 37.4554 26.9226 36.6604 25.8332 36.27ZM35.8982 33.45L30.5882 28.125C31.1173 27.3278 31.489 26.4368 31.6832 25.5H36.6032C36.9936 26.5894 37.7887 27.4865 38.8232 28.005L36.7532 33.15C36.4575 33.2163 36.1705 33.317 35.8982 33.45ZM37.8332 8.99997C38.1299 8.99997 38.4199 9.08794 38.6666 9.25277C38.9132 9.41759 39.1055 9.65186 39.219 9.92595C39.3326 10.2 39.3623 10.5016 39.3044 10.7926C39.2465 11.0836 39.1037 11.3509 38.8939 11.5606C38.6841 11.7704 38.4168 11.9133 38.1259 11.9711C37.8349 12.029 37.5333 11.9993 37.2592 11.8858C36.9851 11.7723 36.7508 11.58 36.586 11.3333C36.4212 11.0867 36.3332 10.7966 36.3332 10.5C36.3332 10.1021 36.4913 9.72062 36.7726 9.43931C37.0539 9.15801 37.4354 8.99997 37.8332 8.99997ZM24.3332 5.99997C24.6299 5.99997 24.9199 6.08795 25.1666 6.25277C25.4133 6.41759 25.6055 6.65186 25.719 6.92595C25.8326 7.20004 25.8623 7.50164 25.8044 7.79261C25.7465 8.08358 25.6037 8.35085 25.3939 8.56063C25.1841 8.77041 24.9168 8.91327 24.6259 8.97115C24.3349 9.02903 24.0333 8.99932 23.7592 8.88579C23.4851 8.77226 23.2508 8.58 23.086 8.33333C22.9212 8.08665 22.8332 7.79664 22.8332 7.49997C22.8332 7.10215 22.9913 6.72062 23.2726 6.43931C23.5539 6.15801 23.9354 5.99997 24.3332 5.99997ZM10.8332 8.99997C11.1299 8.99997 11.4199 9.08794 11.6666 9.25277C11.9133 9.41759 12.1055 9.65186 12.219 9.92595C12.3326 10.2 12.3623 10.5016 12.3044 10.7926C12.2465 11.0836 12.1037 11.3509 11.8939 11.5606C11.6841 11.7704 11.4168 11.9133 11.1259 11.9711C10.8349 12.029 10.5333 11.9993 10.2592 11.8858C9.98511 11.7723 9.75084 11.58 9.58602 11.3333C9.4212 11.0867 9.33322 10.7966 9.33322 10.5C9.33322 10.1021 9.49126 9.72062 9.77256 9.43931C10.0539 9.15801 10.4354 8.99997 10.8332 8.99997ZM10.8332 39C10.4354 39 10.0539 38.8419 9.77256 38.5606C9.49126 38.2793 9.33322 37.8978 9.33322 37.5C9.33322 37.1021 9.49126 36.7206 9.77256 36.4393C10.0539 36.158 10.4354 36 10.8332 36C11.231 36 11.6126 36.158 11.8939 36.4393C12.1752 36.7206 12.3332 37.1021 12.3332 37.5C12.3332 37.8978 12.1752 38.2793 11.8939 38.5606C11.6126 38.8419 11.231 39 10.8332 39ZM24.3332 42C24.0366 42 23.7465 41.912 23.4999 41.7472C23.2532 41.5824 23.0609 41.3481 22.9474 41.074C22.8339 40.7999 22.8042 40.4983 22.862 40.2073C22.9199 39.9164 23.0628 39.6491 23.2726 39.4393C23.4823 39.2295 23.7496 39.0867 24.0406 39.0288C24.3316 38.9709 24.6332 39.0006 24.9072 39.1142C25.1813 39.2277 25.4156 39.4199 25.5804 39.6666C25.7452 39.9133 25.8332 40.2033 25.8332 40.5C25.8332 40.8978 25.6752 41.2793 25.3939 41.5606C25.1126 41.8419 24.731 42 24.3332 42ZM37.8332 39C37.4354 39 37.0539 38.8419 36.7726 38.5606C36.4913 38.2793 36.3332 37.8978 36.3332 37.5C36.3332 37.1021 36.4913 36.7206 36.7726 36.4393C37.0539 36.158 37.4354 36 37.8332 36C38.231 36 38.6126 36.158 38.8939 36.4393C39.1752 36.7206 39.3332 37.1021 39.3332 37.5C39.3332 37.8978 39.1752 38.2793 38.8939 38.5606C38.6126 38.8419 38.231 39 37.8332 39Z" fill="white"/>
</svg>
