<svg width="49" height="48" viewBox="0 0 49 48" fill="none" xmlns="http://www.w3.org/2000/svg">
<path d="M23.1667 15.694C21.2947 16.206 20.1667 17.644 20.1667 19C20.1667 20.356 21.2947 21.794 23.1667 22.304V15.694ZM26.1667 25.696V32.304C28.0387 31.794 29.1667 30.356 29.1667 29C29.1667 27.644 28.0387 26.206 26.1667 25.696Z" fill="white"/>
<path fill-rule="evenodd" clip-rule="evenodd" d="M44.6667 24C44.6667 35.046 35.7127 44 24.6667 44C13.6207 44 4.66675 35.046 4.66675 24C4.66675 12.954 13.6207 4 24.6667 4C35.7127 4 44.6667 12.954 44.6667 24ZM24.6667 10.5C25.0646 10.5 25.4461 10.658 25.7274 10.9393C26.0087 11.2206 26.1667 11.6022 26.1667 12V12.634C29.4267 13.218 32.1667 15.668 32.1667 19C32.1667 19.3978 32.0087 19.7794 31.7274 20.0607C31.4461 20.342 31.0646 20.5 30.6667 20.5C30.2689 20.5 29.8874 20.342 29.6061 20.0607C29.3248 19.7794 29.1667 19.3978 29.1667 19C29.1667 17.644 28.0387 16.206 26.1667 15.694V22.634C29.4267 23.218 32.1667 25.668 32.1667 29C32.1667 32.332 29.4267 34.782 26.1667 35.366V36C26.1667 36.3978 26.0087 36.7794 25.7274 37.0607C25.4461 37.342 25.0646 37.5 24.6667 37.5C24.2689 37.5 23.8874 37.342 23.6061 37.0607C23.3248 36.7794 23.1667 36.3978 23.1667 36V35.366C19.9067 34.782 17.1667 32.332 17.1667 29C17.1667 28.6022 17.3248 28.2206 17.6061 27.9393C17.8874 27.658 18.2689 27.5 18.6667 27.5C19.0646 27.5 19.4461 27.658 19.7274 27.9393C20.0087 28.2206 20.1667 28.6022 20.1667 29C20.1667 30.356 21.2947 31.794 23.1667 32.304V25.366C19.9067 24.782 17.1667 22.332 17.1667 19C17.1667 15.668 19.9067 13.218 23.1667 12.634V12C23.1667 11.6022 23.3248 11.2206 23.6061 10.9393C23.8874 10.658 24.2689 10.5 24.6667 10.5Z" fill="white"/>
</svg>
