<svg width="48" height="48" viewBox="0 0 48 48" fill="none" xmlns="http://www.w3.org/2000/svg">
<path d="M35.6666 26.0175C35.1079 25.7513 34.4366 25.4475 33.7729 25.1738C33.3379 25.8638 32.0554 27.9938 31.7966 28.7438C31.6622 29.1356 31.5987 29.5484 31.6091 29.9625C31.6114 30.1372 31.5976 30.3116 31.5679 30.4838C31.5051 30.8151 31.3522 31.1228 31.126 31.3729C30.8997 31.6229 30.6088 31.8058 30.2854 31.9013C29.9891 31.9913 29.3854 32.0963 28.6916 32.22C27.9605 32.3231 27.2375 32.4772 26.5279 32.6813C26.298 33.0308 26.0041 33.3336 25.6616 33.5738C25.5261 33.6698 25.3752 33.7421 25.2154 33.7875C25.2154 34.38 24.9941 35.2125 24.2741 35.3663C24.0986 35.3956 23.9187 35.3842 23.7483 35.3328C23.5779 35.2815 23.4217 35.1915 23.2916 35.07C23.2258 35.2894 23.1123 35.4916 22.9594 35.662C22.8064 35.8325 22.6177 35.9671 22.4066 36.0563C22.2376 36.1057 22.0605 36.1212 21.8854 36.1019C21.7103 36.0826 21.5408 36.0289 21.3866 35.9438C21.1879 36.4088 20.7941 37.0388 20.1191 37.0688C19.9251 37.0593 19.7358 37.0057 19.5656 36.9122C19.3953 36.8186 19.2486 36.6875 19.1366 36.5288C18.9451 36.8416 18.6792 37.1023 18.3625 37.2874C18.0458 37.4726 17.6882 37.5766 17.3216 37.59H17.1904C16.8662 37.5834 16.5569 37.4525 16.3266 37.2242C16.0962 36.996 15.9625 36.6879 15.9529 36.3638C15.8734 36.4082 15.7873 36.4399 15.6979 36.4575C15.5236 36.4741 15.348 36.4457 15.1879 36.375C15.226 36.5467 15.226 36.7246 15.1879 36.8963C14.9929 37.4925 13.4554 37.4138 12.4691 37.215C12.1413 37.1607 11.8292 37.0356 11.5547 36.8485C11.2801 36.6613 11.0495 36.4166 10.8791 36.1313C10.4141 36.5363 10.2116 36.5363 10.1291 36.5363C9.97165 36.5363 9.7129 36.5363 9.09415 35.3513C8.7379 35.3775 8.09665 35.415 7.8529 35.4C7.70061 35.3761 7.55856 35.3084 7.44404 35.2052C7.32952 35.102 7.24748 34.9678 7.2079 34.8188C6.99167 34.8333 6.77449 34.8168 6.5629 34.77C6.48996 34.7542 6.41937 34.729 6.3529 34.695C6.85165 35.9213 7.4779 37.0613 7.7404 37.6538C8.04209 38.2963 8.47697 38.8673 9.01617 39.3289C9.55537 39.7905 10.1866 40.1322 10.8679 40.3313C12.8966 40.8713 18.3679 40.995 20.2429 40.935C21.2776 40.9031 22.2963 40.6714 23.2429 40.2525C23.9972 39.9732 24.7878 39.804 25.5904 39.75C26.5841 39.675 29.2354 39.6788 29.8354 39.6563C31.1891 39.6038 32.5654 37.5225 33.4654 35.88C34.085 34.8841 34.3677 33.7153 34.2716 32.5463C34.2116 31.5975 34.1366 28.3875 34.4591 27.735C34.8015 27.1225 35.2061 26.5469 35.6666 26.0175ZM6.5704 31.755C6.45979 32.3889 6.40832 33.0316 6.41665 33.675C6.4354 33.7575 6.5104 34.05 6.71665 34.0988C6.83999 34.124 6.96578 34.1354 7.09165 34.1325C6.99485 33.404 6.97975 32.6669 7.04665 31.935C6.86665 31.875 6.71665 31.8188 6.5704 31.755ZM5.66665 31.2563C5.62033 31.8795 5.68121 32.5061 5.84665 33.1088C5.87564 32.5688 5.94079 32.0313 6.04165 31.5L5.66665 31.2563Z" fill="white"/>
<path d="M16.2004 31.335C15.8424 31.3363 15.4946 31.4549 15.2104 31.6725C14.8129 33.015 15.3454 35.19 15.4541 35.6137C15.794 35.2162 16.1001 34.791 16.3691 34.3425C16.7307 33.566 17.0025 32.7507 17.1791 31.9125L17.0929 31.8375C16.8635 31.5704 16.5476 31.3926 16.2004 31.335ZM18.7579 33.8587C18.8158 33.7997 18.8561 33.7257 18.8741 33.645L19.2154 31.905C19.1029 31.4925 18.0604 31.6612 17.9366 31.725C17.794 32.4391 17.6048 33.1431 17.3704 33.8325C17.8287 33.9129 18.2968 33.9218 18.7579 33.8587ZM16.9429 34.7475C16.8025 35.0665 16.7018 35.4015 16.6429 35.745C16.6129 36.4687 16.6954 36.8287 17.2504 36.87C18.7729 36.9637 18.8929 34.5525 18.8929 34.5525C18.6899 34.5987 18.4822 34.6201 18.2741 34.6162C17.8767 34.6073 17.4806 34.5685 17.0891 34.5C17.0455 34.5854 16.9967 34.6681 16.9429 34.7475ZM14.5429 31.125C13.9916 31.3425 11.4079 35.6512 11.4079 35.6512C11.5187 35.8828 11.6848 36.0835 11.8914 36.2359C12.098 36.3882 12.3389 36.4875 12.5929 36.525C13.2176 36.6802 13.8679 36.7019 14.5016 36.5887C14.9441 34.9987 14.0554 33.7987 14.5429 31.125ZM9.36411 32.6925C9.31765 33.4299 9.40662 34.1696 9.62661 34.875C9.76236 35.2063 9.94415 35.5169 10.1666 35.7975C10.9429 35.385 12.2066 33.15 12.2066 33.15C11.2787 33.1455 10.3564 33.0052 9.46911 32.7337L9.36411 32.6925ZM8.43411 32.4L7.68411 32.175C7.64843 32.9129 7.68359 33.6525 7.78911 34.3837C7.80876 34.5007 7.85078 34.6127 7.91286 34.7137C8.08536 34.7137 8.47911 34.7137 8.84286 34.68C8.66339 33.9596 8.6076 33.214 8.67786 32.475L8.43411 32.4ZM5.95911 30.6075C6.22181 30.7802 6.50061 30.9272 6.79161 31.0462C6.79161 31.0462 7.47036 29.9587 7.84161 29.3437C7.80395 29.2932 7.75983 29.2478 7.71036 29.2087C7.38033 29.0152 7.0013 28.9214 6.61911 28.9387C6.30858 29.4548 6.08556 30.0186 5.95911 30.6075ZM8.47536 29.625C8.16786 30.1387 7.59786 31.0537 7.42911 31.3237C7.68036 31.4137 7.93536 31.4962 8.17911 31.575C8.50867 30.8541 8.93511 30.1817 9.44661 29.5762C9.41071 29.5442 9.36858 29.5199 9.32286 29.505C9.03477 29.4738 8.74346 29.515 8.47536 29.625ZM10.9166 29.8875C10.7602 29.8392 10.5942 29.83 10.4334 29.8607C10.2726 29.8915 10.1217 29.9612 9.99411 30.0637C9.53434 30.5801 9.15507 31.1629 8.86911 31.7925C9.18411 31.8862 9.91536 32.1375 9.99411 32.1675L11.3141 30.225C11.3816 30.1312 10.9879 29.91 10.9166 29.8875ZM12.4954 30.0712C12.1804 30.21 10.7441 32.3212 10.7441 32.3212C11.3816 32.4091 12.0243 32.4542 12.6679 32.4562L13.4179 31.3312C13.5716 31.1137 13.3429 30.4425 13.2416 30.3525C13.0222 30.1942 12.7646 30.0972 12.4954 30.0712ZM23.4341 31.44L23.4604 32.6925C23.7904 32.6325 24.1016 32.5837 24.3679 32.5575C24.4129 32.1 24.4504 31.6125 24.4466 31.3762C24.1078 31.3645 23.7687 31.3859 23.4341 31.44ZM28.5829 31.5262C29.2316 31.4137 29.8429 31.305 30.0829 31.2262C30.2856 31.1663 30.4674 31.0504 30.6074 30.8919C30.7473 30.7334 30.8398 30.5386 30.8741 30.33C30.8942 30.206 30.903 30.0805 30.9004 29.955C30.9014 29.4579 30.9916 28.9651 31.1666 28.5C31.4441 27.6937 32.6441 25.7025 33.1429 24.8962C32.5665 24.6314 31.951 24.4617 31.3204 24.3937C30.5384 24.478 29.8084 24.8258 29.2504 25.38C29.2275 25.4348 29.2087 25.4912 29.1941 25.5487C29.0691 26.0108 28.8336 26.4355 28.5079 26.7862C28.2462 27.0481 27.9598 27.2842 27.6529 27.4912C27.0266 27.9412 26.6404 28.2412 26.6404 28.8375C26.6404 29.1262 26.6629 29.7112 26.6816 30.315C26.7079 31.065 26.7229 31.5562 26.7266 31.8825C27.1054 31.7925 27.7016 31.6837 28.5829 31.5262ZM19.4554 35.7375C19.4891 35.7825 19.6541 36.3262 20.1116 36.345C21.1429 36.4387 20.8616 33.93 20.8616 33.93C20.6629 33.93 20.1829 33.9787 19.6691 34.02L19.4554 35.7375ZM13.1666 20.6625C13.0354 20.73 12.8404 21.1387 12.6529 22.7175C12.5691 23.3166 12.3946 23.8996 12.1354 24.4462C12.0413 24.6476 11.9624 24.8557 11.8991 25.0687C11.8298 25.3173 11.8527 25.5825 11.9637 25.8155C12.0746 26.0485 12.2662 26.2334 12.5029 26.3362C12.7091 26.4404 12.9455 26.4683 13.1704 26.415C12.7279 26.1937 12.8179 25.725 12.9304 25.185C12.9604 25.035 12.9979 24.8587 13.0354 24.6525C13.0821 24.3224 13.1943 24.0049 13.3654 23.7187C13.4591 23.5537 13.4966 23.4862 13.4441 23.1075C13.3852 22.3399 13.5774 21.5739 13.9916 20.925C14.0366 20.835 14.0816 20.7525 14.1229 20.6662C14.1574 20.6023 14.2017 20.5441 14.2541 20.4937C13.883 20.4497 13.5069 20.508 13.1666 20.6625ZM42.4466 14.2237C42.4455 13.957 42.3846 13.6939 42.2685 13.4538C42.1523 13.2137 41.9838 13.0026 41.7754 12.8362C41.4229 12.5775 39.1241 10.6125 38.7229 9.90747C37.7591 8.22372 35.6591 7.28247 33.8479 7.08372C31.9746 6.98157 30.0958 7.1075 28.2529 7.45872C27.2199 7.86067 26.2289 8.36308 25.2941 8.95872L25.2004 9.00747C26.5654 9.00747 27.8816 9.16872 28.8191 9.71247C30.0379 10.4175 31.2079 11.52 31.5304 14.79C31.6199 15.9839 31.6073 17.1832 31.4929 18.375C31.3991 19.7775 31.3241 20.8875 31.7854 21.4575C31.9504 21.66 32.5354 21.8625 33.2029 22.095C34.8533 22.6098 36.4134 23.3791 37.8266 24.375C38.0441 24.3 38.2766 24.2362 38.5766 24.165C39.4766 23.9362 40.6766 22.095 41.0216 20.9775C41.1641 20.4975 41.2916 19.1025 41.4529 18.5137C41.6516 17.8087 42.0529 16.8075 42.1466 16.4962C42.3446 15.7549 42.4455 14.991 42.4466 14.2237Z" fill="white"/>
<path d="M32.9741 22.7662C32.1041 22.4662 31.5304 22.2675 31.2416 21.9075C30.6041 21.1237 30.6866 19.8937 30.7916 18.3337C30.8989 17.1778 30.9077 16.0149 30.8179 14.8575C30.5441 12.0675 29.6929 11.025 28.4554 10.32C27.1541 9.56999 24.9229 9.64124 22.9691 9.83624C22.2915 10.0547 21.5926 10.2005 20.8841 10.2712C20.1079 10.2712 18.8966 9.68999 18.4616 9.41249C18.0443 9.10896 17.5572 8.91549 17.0453 8.84994C16.5334 8.7844 16.0132 8.8489 15.5329 9.03749C15.0379 9.20624 14.3741 9.50624 14.1566 9.93749C13.6807 11.047 13.3176 12.2016 13.0729 13.3837C13.0174 13.9864 12.8916 14.5804 12.6979 15.1537C12.5366 15.5925 11.8579 17.6887 11.6704 18.0187C11.4829 18.3487 10.9166 19.0875 10.2454 20.1112C9.97635 20.5444 9.82751 21.0415 9.81412 21.5512C9.85537 22.005 10.6391 22.8825 10.5379 24.0937C10.4629 24.9412 9.45037 25.5937 8.32162 26.7187C7.84416 27.1915 7.41457 27.7103 7.03912 28.2675C7.44197 28.312 7.82802 28.4535 8.16412 28.68C8.25628 28.7565 8.33933 28.8433 8.41162 28.9387C8.78066 28.8054 9.18021 28.7806 9.56287 28.8675C9.8018 28.9404 10.0042 29.1012 10.1291 29.3175C10.4085 29.2447 10.6955 29.2057 10.9841 29.2012C11.3128 29.2776 11.6061 29.4626 11.8166 29.7262C11.9711 29.5791 12.1552 29.4666 12.3566 29.3962C12.6829 29.3212 13.3354 29.6212 13.6016 29.7712C13.6841 29.8087 13.8979 29.9175 14.0891 30.6375C14.1847 30.528 14.3076 30.446 14.4454 30.3999C14.5831 30.3538 14.7307 30.3452 14.8729 30.375C14.9479 30.405 15.1391 30.4762 15.2254 30.8887C15.5462 30.7248 15.9042 30.6472 16.2641 30.6637C16.7163 30.7113 17.1386 30.9125 17.4604 31.2337C17.8778 31.0049 18.357 30.9143 18.8291 30.975C19.1409 31.0069 19.4341 31.1384 19.6654 31.35C19.8789 31.1166 20.1716 30.9709 20.4866 30.9412C20.6213 30.9286 20.7568 30.9526 20.879 31.0107C21.0011 31.0688 21.1052 31.1588 21.1804 31.2712C21.252 31.1673 21.335 31.0717 21.4279 30.9862C21.6416 30.795 22.0016 30.7987 22.4629 30.81C22.6552 30.8218 22.8481 30.8218 23.0404 30.81C24.3716 30.6262 24.9716 30.6225 25.1179 31.065C25.2079 31.3312 24.8629 32.535 25.1479 33.1087C25.5077 32.8965 25.8071 32.5957 26.0179 32.235C26.0179 32.1112 25.9954 31.11 25.9691 30.36C25.9691 29.745 25.9316 29.1525 25.9316 28.86C25.9316 27.8812 26.6254 27.3825 27.2366 26.9437C27.5059 26.7635 27.7571 26.5575 27.9866 26.3287C28.2401 26.0557 28.4229 25.7249 28.5191 25.365C28.5489 25.2505 28.5917 25.1398 28.6466 25.035C29.3226 24.278 30.2609 23.8062 31.2716 23.715C32.2991 23.6287 35.6666 25.215 36.2104 25.485C36.3154 25.3837 36.4166 25.2862 36.5179 25.2037C36.713 25.0345 36.9198 24.8791 37.1366 24.7387C35.8499 23.8869 34.4483 23.2227 32.9741 22.7662ZM15.1841 26.1L15.0491 26.1862C14.0629 26.8087 13.5154 27.1537 12.9416 27.1537C12.69 27.1521 12.4413 27.0998 12.2104 27C11.8206 26.8304 11.5043 26.5271 11.3186 26.1447C11.1329 25.7623 11.0901 25.3262 11.1979 24.915C11.2698 24.6583 11.3613 24.4076 11.4716 24.165C11.7042 23.6806 11.861 23.1633 11.9366 22.6312C12.1091 21.1312 12.3116 20.295 12.8329 20.0325C13.3879 19.7512 14.3629 19.5562 15.8329 20.2087C17.1791 20.8012 17.7716 21.3337 17.8729 22.035C17.9741 22.7362 17.4379 24.675 15.1841 26.1ZM19.6391 12.795L19.6016 13.17C19.4254 14.8087 19.2266 16.845 18.3079 17.4525C17.3891 18.06 16.0054 18.2025 15.1879 18.2025H15.0416C13.8866 18.1687 13.2829 17.3812 13.2829 16.62C13.2829 16.1287 13.6016 15.6262 13.9729 15.045C14.2087 14.6837 14.4216 14.308 14.6104 13.92C14.7713 13.5685 14.9042 13.2049 15.0079 12.8325C15.1302 12.3485 15.3276 11.8866 15.5929 11.4637C16.0241 10.7625 17.2241 10.215 18.1166 10.5525L18.2891 10.6162C18.8891 10.8262 19.8229 11.16 19.6391 12.795ZM28.6391 15.825C28.2979 16.7587 27.2441 18.825 26.1679 19.335C25.6232 19.5679 25.0351 19.6817 24.4429 19.6687C23.3927 19.682 22.3603 19.3973 21.4654 18.8475C20.8054 18.39 20.8054 17.2875 20.8091 16.2225V15.8475C20.8585 15.1932 21.0052 14.5499 21.2441 13.9387C21.2821 13.8546 21.3498 13.7874 21.4342 13.75C21.5186 13.7127 21.6138 13.7078 21.7016 13.7362C21.7447 13.7532 21.7841 13.7785 21.8174 13.8107C21.8507 13.8429 21.8774 13.8813 21.8958 13.9238C21.9143 13.9663 21.9242 14.012 21.925 14.0583C21.9257 14.1046 21.9174 14.1507 21.9004 14.1937C21.6967 14.7229 21.5704 15.2786 21.5254 15.8437V16.2187C21.5254 16.9687 21.5254 18.015 21.9004 18.2625C22.1796 18.4441 22.4825 18.5867 22.8004 18.6862C22.6038 17.7296 22.5369 16.7508 22.6016 15.7762C22.6954 15.0262 24.1241 12.5437 24.9904 11.6512C24.3488 11.7597 23.7414 12.0165 23.2166 12.4012C23.1421 12.451 23.0515 12.4705 22.9632 12.4558C22.8748 12.4411 22.7954 12.3934 22.741 12.3222C22.6866 12.2511 22.6612 12.162 22.6702 12.0728C22.6791 11.9837 22.7217 11.9014 22.7891 11.8425C23.2541 11.49 24.2891 10.9312 25.1029 10.9312C25.6477 10.9442 26.1823 11.0822 26.6653 11.3344C27.1484 11.5867 27.5671 11.9466 27.8891 12.3862C28.7479 13.56 29.0291 14.7787 28.6429 15.825H28.6391Z" fill="white"/>
<path d="M16.1666 11.8238C15.9345 12.1926 15.7635 12.5966 15.6604 13.02C15.5483 13.4276 15.4028 13.8252 15.2254 14.2088C15.0236 14.618 14.7957 15.0139 14.5429 15.3938C14.266 15.7474 14.069 16.1568 13.9654 16.5938C13.9654 17.0925 14.4079 17.4563 15.0416 17.4713H15.1879C15.089 16.8933 15.1446 16.2995 15.3491 15.75C15.5552 15.1919 15.8298 14.6616 16.1666 14.1713C16.4572 13.7292 16.7081 13.2624 16.9166 12.7763C17.0417 12.4029 17.1247 12.0168 17.1641 11.625C17.1866 11.4488 17.2054 11.3063 17.2279 11.1788C16.8062 11.2542 16.4278 11.4842 16.1666 11.8238ZM20.8804 31.9538C20.8804 31.8075 20.6104 31.6463 20.5054 31.6388C20.4004 31.6313 19.9354 31.83 19.9016 32.0138L19.7441 33.3075L20.8691 33.225L20.8804 31.9538ZM21.5479 35.205C21.6359 35.2874 21.7429 35.3466 21.8594 35.3774C21.9759 35.4081 22.0982 35.4095 22.2154 35.3813C22.4854 35.3025 22.7104 34.7025 22.7854 34.305V33.555C22.3879 33.6375 22.0054 33.7238 21.6979 33.7913L21.5779 33.8175L21.5479 35.205ZM22.7329 31.5C22.7329 31.4213 22.1329 31.395 21.8479 31.5225C21.7764 31.5582 21.7149 31.6112 21.6691 31.6767C21.6232 31.7422 21.5945 31.8181 21.5854 31.8975V33.0713L22.7741 32.8163L22.7329 31.5ZM24.4391 33.255C24.1616 33.285 23.8241 33.3375 23.4716 33.405L23.4904 34.2338C23.6104 34.4175 23.8654 34.7325 24.1429 34.6763C24.5029 34.6013 24.7916 33.66 24.4391 33.255Z" fill="white"/>
</svg>
