<svg width="49" height="48" viewBox="0 0 49 48" fill="none" xmlns="http://www.w3.org/2000/svg">
<path d="M40.3334 10C40.3334 11.5913 39.7012 13.1174 38.576 14.2426C37.4508 15.3679 35.9247 16 34.3334 16C32.7421 16 31.216 15.3679 30.0907 14.2426C28.9655 13.1174 28.3334 11.5913 28.3334 10C28.3334 8.4087 28.9655 6.88258 30.0907 5.75736C31.216 4.63214 32.7421 4 34.3334 4C35.9247 4 37.4508 4.63214 38.576 5.75736C39.7012 6.88258 40.3334 8.4087 40.3334 10ZM14.3334 6C12.2116 6 10.1768 6.84285 8.67652 8.34315C7.17623 9.84344 6.33337 11.8783 6.33337 14V18H10.3334V14C10.3334 12.9391 10.7548 11.9217 11.5049 11.1716C12.2551 10.4214 13.2725 10 14.3334 10H20.3334V6H14.3334ZM34.3334 42C36.4551 42 38.4899 41.1571 39.9902 39.6569C41.4905 38.1566 42.3334 36.1217 42.3334 34V30H38.3334V34C38.3334 35.0609 37.9119 36.0783 37.1618 36.8284C36.4117 37.5786 35.3942 38 34.3334 38H28.3334V42H34.3334ZM14.3334 32C15.9247 32 17.4508 31.3679 18.576 30.2426C19.7012 29.1174 20.3334 27.5913 20.3334 26C20.3334 24.4087 19.7012 22.8826 18.576 21.7574C17.4508 20.6321 15.9247 20 14.3334 20C12.7421 20 11.216 20.6321 10.0907 21.7574C8.96552 22.8826 8.33337 24.4087 8.33337 26C8.33337 27.5913 8.96552 29.1174 10.0907 30.2426C11.216 31.3679 12.7421 32 14.3334 32ZM34.3334 18C32.2116 18 30.1768 18.8429 28.6765 20.3431C27.1762 21.8434 26.3334 23.8783 26.3334 26H42.3334C42.3334 23.8783 41.4905 21.8434 39.9902 20.3431C38.4899 18.8429 36.4551 18 34.3334 18ZM6.33337 42C6.33337 39.8783 7.17623 37.8434 8.67652 36.3431C10.1768 34.8429 12.2116 34 14.3334 34C16.4551 34 18.4899 34.8429 19.9902 36.3431C21.4905 37.8434 22.3334 39.8783 22.3334 42H6.33337Z" fill="white"/>
</svg>
